{
  "asset": {
    "version": "2.0",
    "generator": "Microsoft GLTF Exporter 2.4.2.17"
  },
  "accessors": [
    {
      "bufferView": 0,
      "componentType": 5123,
      "count": 9216,
      "type": "SCALAR"
    },
    {
      "bufferView": 1,
      "componentType": 5123,
      "count": 9216,
      "type": "SCALAR"
    },
    {
      "bufferView": 2,
      "componentType": 5123,
      "count": 9216,
      "type": "SCALAR"
    },
    {
      "bufferView": 3,
      "componentType": 5123,
      "count": 9216,
      "type": "SCALAR"
    },
    {
      "bufferView": 4,
      "componentType": 5126,
      "count": 1631,
      "type": "VEC3",
      "max": [
        52.790958404541016,
        52.27885818481445,
        52.27885818481445
      ],
      "min": [
        -52.790958404541016,
        -52.27885818481445,
        -52.27885818481445
      ]
    },
    {
      "bufferView": 5,
      "componentType": 5126,
      "count": 1631,
      "type": "VEC3",
      "max": [
        52.790958404541016,
        52.27885818481445,
        52.27885818481445
      ],
      "min": [
        -52.790958404541016,
        -52.27885818481445,
        -52.27885818481445
      ]
    },
    {
      "bufferView": 6,
      "componentType": 5126,
      "count": 1631,
      "type": "VEC3",
      "max": [
        52.790958404541016,
        52.27885818481445,
        52.27885818481445
      ],
      "min": [
        -52.790958404541016,
        -52.27885818481445,
        -52.27885818481445
      ]
    },
    {
      "bufferView": 7,
      "componentType": 5126,
      "count": 1631,
      "type": "VEC3",
      "max": [
        52.790958404541016,
        52.27885818481445,
        52.27885818481445
      ],
      "min": [
        -52.790958404541016,
        -52.27885818481445,
        -52.27885818481445
      ]
    },
    {
      "bufferView": 8,
      "componentType": 5126,
      "count": 1631,
      "type": "VEC3"
    },
    {
      "bufferView": 9,
      "componentType": 5126,
      "count": 1631,
      "type": "VEC3"
    },
    {
      "bufferView": 10,
      "componentType": 5126,
      "count": 1631,
      "type": "VEC3"
    },
    {
      "bufferView": 11,
      "componentType": 5126,
      "count": 1631,
      "type": "VEC3"
    },
    {
      "bufferView": 12,
      "componentType": 5126,
      "count": 1631,
      "type": "VEC2"
    },
    {
      "bufferView": 13,
      "componentType": 5126,
      "count": 1631,
      "type": "VEC2"
    },
    {
      "bufferView": 14,
      "componentType": 5126,
      "count": 1631,
      "type": "VEC2"
    },
    {
      "bufferView": 15,
      "componentType": 5126,
      "count": 1631,
      "type": "VEC2"
    },
    {
      "bufferView": 16,
      "componentType": 5126,
      "count": 1631,
      "type": "VEC4"
    },
    {
      "bufferView": 17,
      "componentType": 5126,
      "count": 1631,
      "type": "VEC4"
    },
    {
      "bufferView": 18,
      "componentType": 5126,
      "count": 1631,
      "type": "VEC4"
    },
    {
      "bufferView": 19,
      "componentType": 5126,
      "count": 1631,
      "type": "VEC4"
    }
  ],
  "bufferViews": [
    {
      "buffer": 0,
      "byteOffset": 0,
      "byteLength": 18432,
      "target": 34963
    },
    {
      "buffer": 0,
      "byteOffset": 18432,
      "byteLength": 18432,
      "target": 34963
    },
    {
      "buffer": 0,
      "byteOffset": 36864,
      "byteLength": 18432,
      "target": 34963
    },
    {
      "buffer": 0,
      "byteOffset": 55296,
      "byteLength": 18432,
      "target": 34963
    },
    {
      "buffer": 0,
      "byteOffset": 73728,
      "byteLength": 19572,
      "target": 34962
    },
    {
      "buffer": 0,
      "byteOffset": 93300,
      "byteLength": 19572,
      "target": 34962
    },
    {
      "buffer": 0,
      "byteOffset": 112872,
      "byteLength": 19572,
      "target": 34962
    },
    {
      "buffer": 0,
      "byteOffset": 132444,
      "byteLength": 19572,
      "target": 34962
    },
    {
      "buffer": 0,
      "byteOffset": 152016,
      "byteLength": 19572,
      "target": 34962
    },
    {
      "buffer": 0,
      "byteOffset": 171588,
      "byteLength": 19572,
      "target": 34962
    },
    {
      "buffer": 0,
      "byteOffset": 191160,
      "byteLength": 19572,
      "target": 34962
    },
    {
      "buffer": 0,
      "byteOffset": 210732,
      "byteLength": 19572,
      "target": 34962
    },
    {
      "buffer": 0,
      "byteOffset": 230304,
      "byteLength": 13048,
      "target": 34962
    },
    {
      "buffer": 0,
      "byteOffset": 243352,
      "byteLength": 13048,
      "target": 34962
    },
    {
      "buffer": 0,
      "byteOffset": 256400,
      "byteLength": 13048,
      "target": 34962
    },
    {
      "buffer": 0,
      "byteOffset": 269448,
      "byteLength": 13048,
      "target": 34962
    },
    {
      "buffer": 0,
      "byteOffset": 282496,
      "byteLength": 26096,
      "target": 34962
    },
    {
      "buffer": 0,
      "byteOffset": 308592,
      "byteLength": 26096,
      "target": 34962
    },
    {
      "buffer": 0,
      "byteOffset": 334688,
      "byteLength": 26096,
      "target": 34962
    },
    {
      "buffer": 0,
      "byteOffset": 360784,
      "byteLength": 26096,
      "target": 34962
    }
  ],
  "buffers": [
    {
      "uri": "fourMoons_data.bin",
      "byteLength": 386880
    }
  ],
  "images": [
    {
      "uri": "fourMoons_img0.png"
    },
    {
      "uri": "fourMoons_img1.png"
    },
    {
      "uri": "fourMoons_img2.png"
    },
    {
      "uri": "fourMoons_img3.png"
    }
  ],
  "materials": [
    {
      "pbrMetallicRoughness": {
        "baseColorTexture": {
          "index": 2
        },
        "metallicRoughnessTexture": {
          "index": 3
        }
      },
      "name": "153",
      "doubleSided": true,
      "extensions": {
        "KHR_materials_pbrSpecularGlossiness": {
          "diffuseTexture": {
            "index": 0
          },
          "specularGlossinessTexture": {
            "index": 1
          }
        }
      },
      "extras": {
        "MSFT_sRGBFactors": false
      }
    },
    {
      "pbrMetallicRoughness": {
        "baseColorTexture": {
          "index": 2
        },
        "metallicRoughnessTexture": {
          "index": 3
        }
      },
      "name": "155",
      "doubleSided": true,
      "extensions": {
        "KHR_materials_pbrSpecularGlossiness": {
          "diffuseTexture": {
            "index": 0
          },
          "specularGlossinessTexture": {
            "index": 1
          }
        }
      },
      "extras": {
        "MSFT_sRGBFactors": false
      }
    },
    {
      "pbrMetallicRoughness": {
        "baseColorTexture": {
          "index": 2
        },
        "metallicRoughnessTexture": {
          "index": 3
        }
      },
      "name": "157",
      "doubleSided": true,
      "extensions": {
        "KHR_materials_pbrSpecularGlossiness": {
          "diffuseTexture": {
            "index": 0
          },
          "specularGlossinessTexture": {
            "index": 1
          }
        }
      },
      "extras": {
        "MSFT_sRGBFactors": false
      }
    },
    {
      "pbrMetallicRoughness": {
        "baseColorTexture": {
          "index": 2
        },
        "metallicRoughnessTexture": {
          "index": 3
        }
      },
      "name": "159",
      "doubleSided": true,
      "extensions": {
        "KHR_materials_pbrSpecularGlossiness": {
          "diffuseTexture": {
            "index": 0
          },
          "specularGlossinessTexture": {
            "index": 1
          }
        }
      },
      "extras": {
        "MSFT_sRGBFactors": false
      }
    }
  ],
  "meshes": [
    {
      "name": "mesh_id127",
      "primitives": [
        {
          "attributes": {
            "POSITION": 4,
            "NORMAL": 8,
            "TEXCOORD_0": 12,
            "COLOR_0": 16
          },
          "indices": 0,
          "material": 0
        }
      ]
    },
    {
      "name": "mesh_id133",
      "primitives": [
        {
          "attributes": {
            "POSITION": 5,
            "NORMAL": 9,
            "TEXCOORD_0": 13,
            "COLOR_0": 17
          },
          "indices": 1,
          "material": 1
        }
      ]
    },
    {
      "name": "mesh_id139",
      "primitives": [
        {
          "attributes": {
            "POSITION": 6,
            "NORMAL": 10,
            "TEXCOORD_0": 14,
            "COLOR_0": 18
          },
          "indices": 2,
          "material": 2
        }
      ]
    },
    {
      "name": "mesh_id145",
      "primitives": [
        {
          "attributes": {
            "POSITION": 7,
            "NORMAL": 11,
            "TEXCOORD_0": 15,
            "COLOR_0": 19
          },
          "indices": 3,
          "material": 3
        }
      ]
    }
  ],
  "nodes": [
    {
      "translation": [
        -0.06792271882295609,
        -0.009231314063072205,
        0.3414917588233948
      ],
      "rotation": [
        -0.029630964621901512,
        0.5135939717292786,
        0.07632320374250412,
        0.854118287563324
      ],
      "scale": [
        0.0010000007459893823,
        0.0010000019101426005,
        0.001000000862404704
      ],
      "mesh": 0
    },
    {
      "translation": [
        -0.1399923861026764,
        -0.010067611001431942,
        0.15796244144439697
      ],
      "rotation": [
        -0.02963091991841793,
        0.5135936141014099,
        0.07632318884134293,
        0.8541184067726135
      ],
      "scale": [
        0.0009999998146668077,
        0.0009999999310821295,
        0.0009999998146668077
      ],
      "mesh": 1
    },
    {
      "translation": [
        0.12889842689037323,
        -0.008478398434817791,
        0.29714399576187134
      ],
      "rotation": [
        -0.02963091991841793,
        0.5135936737060547,
        0.07632319629192352,
        0.8541184067726135
      ],
      "scale": [
        0.000999999581836164,
        0.0009999999310821295,
        0.0010000000474974513
      ],
      "mesh": 2
    },
    {
      "translation": [
        0.05720607191324234,
        -0.009980899281799793,
        0.11258894950151443
      ],
      "rotation": [
        -0.02963091991841793,
        0.5135936737060547,
        0.07632319629192352,
        0.8541184067726135
      ],
      "scale": [
        0.000999999581836164,
        0.0009999999310821295,
        0.0010000000474974513
      ],
      "mesh": 3
    },
    {
      "children": [
        0,
        1,
        2,
        3
      ],
      "name": "root"
    }
  ],
  "samplers": [
    {
      "minFilter": 9985
    }
  ],
  "scenes": [
    {
      "nodes": [
        4
      ]
    }
  ],
  "textures": [
    {
      "name": "texture2354",
      "sampler": 0,
      "source": 0
    },
    {
      "name": "texture2358",
      "sampler": 0,
      "source": 1
    },
    {
      "name": "153_bc",
      "sampler": 0,
      "source": 2
    },
    {
      "name": "153_mr",
      "sampler": 0,
      "source": 3
    }
  ],
  "scene": 0,
  "extensionsUsed": [
    "KHR_materials_pbrSpecularGlossiness"
  ]
}