<svg xmlns="http://www.w3.org/2000/svg" version="1.1" xmlns:xlink="http://www.w3.org/1999/xlink" xmlns:svgjs="http://svgjs.dev/svgjs" width="2000" height="1999" viewBox="0 0 2000 1999"><g transform="matrix(1,0,0,1,-0.431486880466764,-0.4312711370263287)"><svg viewBox="0 0 343 343" data-background-color="#fafafa" preserveAspectRatio="xMidYMid meet" height="1999" width="2000" xmlns="http://www.w3.org/2000/svg" xmlns:xlink="http://www.w3.org/1999/xlink"><g id="tight-bounds" transform="matrix(1,0,0,1,0.0740000000000407,0.07400000000001228)"><svg viewBox="0 0 342.85155851775386 342.85155851775386" height="342.85155851775386" width="342.85155851775386"><g><svg></svg></g><g><svg viewBox="0 0 342.85155851775386 342.85155851775386" height="342.85155851775386" width="342.85155851775386"><g><path d="M0 171.426c0-94.676 76.75-171.426 171.426-171.426 94.676 0 171.426 76.75 171.426 171.426 0 94.676-76.75 171.426-171.426 171.426-94.676 0-171.426-76.75-171.426-171.426zM171.426 330.091c87.628 0 158.665-71.037 158.665-158.665 0-87.628-71.037-158.665-158.665-158.665-87.628 0-158.665 71.037-158.665 158.665 0 87.628 71.037 158.665 158.665 158.665z" data-fill-palette-color="tertiary" fill="#a61205" stroke="transparent"></path><ellipse rx="164.56874808852186" ry="164.56874808852186" cx="171.42577925887693" cy="171.42577925887693" fill="#a61205" stroke="transparent" stroke-width="0" fill-opacity="1" data-fill-palette-color="tertiary"></ellipse></g><g transform="matrix(1,0,0,1,64.84655864529837,77.38349050788514)"><svg viewBox="0 0 213.1584412271571 188.08457750198357" height="188.08457750198357" width="213.1584412271571"><g><svg viewBox="0 0 213.1584412271571 188.08457750198357" height="188.08457750198357" width="213.1584412271571"><g><svg viewBox="0 0 213.1584412271571 188.08457750198357" height="188.08457750198357" width="213.1584412271571"><g><svg viewBox="0 0 213.1584412271571 188.08457750198357" height="188.08457750198357" width="213.1584412271571"><g><svg viewBox="0 0 213.1584412271571 188.08457750198357" height="188.08457750198357" width="213.1584412271571"><g><svg viewBox="0 0 213.1584412271571 141.50006373128517" height="141.50006373128517" width="213.1584412271571"><g transform="matrix(1,0,0,1,0,0)"><svg width="213.1584412271571" viewBox="0.9 -35.05 52.800000000000004 35.05" height="141.50006373128517" data-palette-color="#fafafa"><path d="M5.85 0L5.85-1.5 24.25-1.5 13.65-30.65 2.5 0 0.9 0 13.65-35.05 26.4 0 5.85 0ZM33.15 0L33.15-1.5 51.55-1.5 40.95-30.65 29.8 0 28.2 0 40.95-35.05 53.7 0 33.15 0Z" opacity="1" transform="matrix(1,0,0,1,0,0)" fill="#fafafa" class="undefined-text-0" data-fill-palette-color="quaternary" id="text-0"></path></svg></g></svg></g><g transform="matrix(1,0,0,1,0,174.90483277671206)"><svg viewBox="0 0 213.1584412271571 13.179744725271547" height="13.179744725271547" width="213.1584412271571"><g transform="matrix(1,0,0,1,0,0)"><svg width="213.1584412271571" viewBox="0 -35.8 578.96 35.8" height="13.179744725271547" data-palette-color="#fafafa"><path d="M25.25-2.15L31.5-2.15 31.5 0 0 0 0-2.15 6.4-2.15Q4-3.4 2-5.25L2-5.25 5.7-9.7Q11-5.1 16.7-5.1L16.7-5.1Q19.55-5.1 21.23-6.33 22.9-7.55 22.9-9.58 22.9-11.6 21.33-12.73 19.75-13.85 15.9-14.78 12.05-15.7 10.05-16.48 8.05-17.25 6.5-18.5L6.5-18.5Q3.4-20.85 3.4-25.7 3.4-30.55 6.93-33.18 10.45-35.8 15.65-35.8L15.65-35.8Q19-35.8 22.3-34.7 25.6-33.6 28-31.6L28-31.6 24.85-27.15Q23.3-28.55 20.65-29.45 18-30.35 15.43-30.35 12.85-30.35 11.2-29.3 9.55-28.25 9.55-26.13 9.55-24 11.2-22.88 12.85-21.75 18.23-20.45 23.6-19.15 26.33-16.8 29.05-14.45 29.05-10.2L29.05-10.2Q29.05-5.05 25.25-2.15L25.25-2.15ZM62.05-2.15L73.5-2.15 73.5 0 31.5 0 31.5-2.15 42.95-2.15Q38.85-4.5 36.47-8.6 34.1-12.7 34.1-17.75L34.1-17.75Q34.1-25.45 39.4-30.63 44.7-35.8 52.5-35.8 60.3-35.8 65.6-30.63 70.9-25.45 70.9-17.75L70.9-17.75Q70.9-12.75 68.52-8.6 66.15-4.45 62.05-2.15L62.05-2.15ZM61.27-26.7Q57.7-30.4 52.5-30.4 47.3-30.4 43.72-26.7 40.15-23 40.15-17.73 40.15-12.45 43.72-8.75 47.3-5.05 52.5-5.05 57.7-5.05 61.27-8.75 64.85-12.45 64.85-17.73 64.85-23 61.27-26.7ZM84.25-2.15L103.7-2.15 103.7 0 73.5 0 73.5-2.15 78.34-2.15 78.34-34.95 101.65-34.95 101.59-29.45 84.25-29.45 84.25-19.85 99.75-19.85 99.75-14.4 84.25-14.4 84.25-2.15ZM121.74-2.15L133.89-2.15 133.89 0 103.69 0 103.69-2.15 115.84-2.15 115.84-29.55 105.24-29.55 105.24-34.95 132.34-34.95 132.34-29.55 121.74-29.55 121.74-2.15ZM174.24-2.15L186.29-2.15 186.29 0 167.64 0 160.29-23.95 159.89-23.95 152.54 0 133.89 0 133.89-2.15 145.94-2.15 134.49-34.95 140.84-34.95 149.64-9.8 157.44-34.95 162.74-34.95 170.54-9.8 179.34-34.95 185.69-34.95 174.24-2.15ZM222.44-2.15L228.24-2.15 228.24 0 217.09 0 213.59-7.95 196.09-7.95 192.59 0 181.44 0 181.44-2.15 187.24-2.15 201.69-34.95 207.99-34.95 222.44-2.15ZM198.49-13.4L211.19-13.4 204.84-27.8 198.49-13.4ZM256.19-2.15L261.04-2.15 261.04 0 250.24 0 241.89-11.75 234.14-11.75 234.14 0 223.39 0 223.39-2.15 228.24-2.15 228.24-34.95 241.24-34.95Q249.24-34.95 252.69-32.25 256.13-29.55 256.13-23.6L256.13-23.6Q256.13-14.95 248.59-12.7L248.59-12.7 256.19-2.15ZM241.49-17.1Q246.49-17.1 248.29-18.65 250.09-20.2 250.09-23.63 250.09-27.05 248.24-28.33 246.39-29.6 241.64-29.6L241.64-29.6 234.14-29.6 234.14-17.1 241.49-17.1ZM259.78-2.15L264.63-2.15 264.63-34.95 289.18-34.95 289.18-29.4 270.53-29.4 270.53-20.15 287.28-20.15 287.28-14.9 270.53-14.9 270.53-5.55 289.78-5.55 289.78-2.15 294.63-2.15 294.63 0 259.78 0 259.78-2.15ZM292.48-2.15L306.18-2.15 306.18 0 292.48 0 292.48-2.15ZM306.18-2.15L311.03-2.15 311.03-34.95 335.58-34.95 335.58-29.4 316.93-29.4 316.93-20.15 333.68-20.15 333.68-14.9 316.93-14.9 316.93-5.55 336.18-5.55 336.18-2.15 341.03-2.15 341.03 0 306.18 0 306.18-2.15ZM338.88-2.15L343.73-2.15 343.73-34.95 349.63-34.95 369.93-8.85 369.93-34.95 375.82-34.95 375.82-2.15 380.68-2.15 380.68 0 369.43 0 349.63-25.5 349.63 0 338.88 0 338.88-2.15ZM411.12-2.15L418.52-2.15 418.52 0 380.67 0 380.67-2.15 392.77-2.15Q388.42-4.35 385.85-8.6 383.27-12.85 383.27-18.2L383.27-18.2Q383.27-25.85 388.57-30.83 393.87-35.8 401.45-35.8 409.02-35.8 414.02-31.4L414.02-31.4 410.87-26.9Q408.82-28.65 406.75-29.33 404.67-30 401.92-30L401.92-30Q396.57-30 393-26.8 389.42-23.6 389.42-18.05 389.42-12.5 392.92-9.13 396.42-5.75 401.4-5.75 406.37-5.75 409.72-7.9L409.72-7.9 409.72-17.5 415.62-17.5 415.62-5.55Q413.77-3.5 411.12-2.15L411.12-2.15ZM418.52-2.15L423.37-2.15 423.37-34.95 429.27-34.95 429.27-2.15 434.12-2.15 434.12 0 418.52 0 418.52-2.15ZM434.12-2.15L438.97-2.15 438.97-34.95 444.87-34.95 465.17-8.85 465.17-34.95 471.07-34.95 471.07-2.15 475.92-2.15 475.92 0 464.67 0 444.87-25.5 444.87 0 434.12 0 434.12-2.15ZM475.92-2.15L480.77-2.15 480.77-34.95 505.32-34.95 505.32-29.4 486.67-29.4 486.67-20.15 503.42-20.15 503.42-14.9 486.67-14.9 486.67-5.55 505.92-5.55 505.92-2.15 510.77-2.15 510.77 0 475.92 0 475.92-2.15ZM508.61-2.15L513.46-2.15 513.46-34.95 538.01-34.95 538.01-29.4 519.36-29.4 519.36-20.15 536.11-20.15 536.11-14.9 519.36-14.9 519.36-5.55 538.61-5.55 538.61-2.15 543.46-2.15 543.46 0 508.61 0 508.61-2.15ZM574.11-2.15L578.96-2.15 578.96 0 568.16 0 559.81-11.75 552.06-11.75 552.06 0 541.31 0 541.31-2.15 546.16-2.15 546.16-34.95 559.16-34.95Q567.16-34.95 570.61-32.25 574.06-29.55 574.06-23.6L574.06-23.6Q574.06-14.95 566.51-12.7L566.51-12.7 574.11-2.15ZM559.41-17.1Q564.41-17.1 566.21-18.65 568.01-20.2 568.01-23.63 568.01-27.05 566.16-28.33 564.31-29.6 559.56-29.6L559.56-29.6 552.06-29.6 552.06-17.1 559.41-17.1Z" opacity="1" transform="matrix(1,0,0,1,0,0)" fill="#fafafa" class="undefined-text-1" data-fill-palette-color="quaternary" id="text-1"></path></svg></g></svg></g></svg></g></svg></g><g></g></svg></g></svg></g></svg></g></svg></g><defs></defs></svg><rect width="342.85155851775386" height="342.85155851775386" fill="none" stroke="none" visibility="hidden"></rect></g></svg></g></svg>